<?xml version="1.0" encoding="UTF-8"?>
<svg viewBox="0 0 1024 1024" xmlns="http://www.w3.org/2000/svg" aria-hidden="true">
  <path
    d="M914.962963 693.096296c-73.007407-14.222222-154.548148-55.940741-178.251852-68.266666-49.303704-31.288889-87.22963-46.459259-121.362963-46.45926-34.133333 0-64.474074 16.118519-79.644444 43.614815-9.481481 16.118519-14.222222 35.081481-12.325926 55.940741 0.948148 10.42963 2.844444 20.859259 6.637037 30.340741-60.681481-6.637037-107.140741-18.014815-138.42963-34.133334-35.081481-17.066667-51.2-37.925926-72.059259-64.474074v-0.948148c-13.274074-17.066667-28.444444-36.977778-50.251852-56.888889-41.718519-38.874074-77.748148-57.837037-112.82963-57.837037-31.288889 0-58.785185 15.17037-76.8 40.770371-18.962963 27.496296-22.755556 61.62963-22.755555 85.333333 0 25.6 4.740741 51.2 11.377778 66.37037 36.02963 80.592593 91.97037 146.962963 167.822222 197.214815 61.62963 41.718519 122.311111 62.577778 163.081481 73.955556 18.014815 4.740741 44.562963 8.533333 58.785186 9.481481l97.659259 0.948148h347.022222c36.02963 0 64.474074-28.444444 64.474074-63.525926V755.674074c0-30.340741-21.807407-56.888889-52.148148-62.577778z m-4.740741 208.592593H557.511111L456.059259 900.740741c-6.637037 0-28.444444-2.844444-42.666666-6.637037-36.02963-10.42963-91.97037-29.392593-146.962963-66.370371-66.37037-44.562963-116.622222-102.4-147.911111-173.511111-5.688889-12.325926-10.42963-62.577778 3.792592-84.385185 4.740741-6.637037 10.42963-10.42963 18.962963-10.42963 16.118519 0 38.874074 13.274074 66.37037 39.822223 17.066667 16.118519 30.340741 33.185185 43.614815 50.251851 29.392593 32.237037 39.822222 50.251852 91.970371 75.851852 53.096296 26.548148 120.414815 29.392593 229.451851 36.02963h5.688889c14.222222 0.948148 27.496296-6.637037 34.133334-18.962963 6.637037-12.325926 5.688889-27.496296-1.896297-38.874074l-3.792592-4.740741c-5.688889-8.533333-4.740741-6.637037-7.585185-11.377778-4.740741-8.533333-6.637037-23.703704-1.896297-32.237037 3.792593-7.585185 13.274074-8.533333 18.962963-8.533333 13.274074 0 39.822222 6.637037 87.22963 36.977778h0.948148l5.688889 2.844444c27.496296 14.222222 115.674074 57.837037 198.162963 75.851852v139.377778zM420.977778 56.888889v56.888889c18.962963 0 37.925926 7.585185 51.2 20.859259 10.42963 10.42963 25.6 17.066667 40.77037 17.066667 15.17037 0 29.392593-5.688889 40.770371-17.066667 13.274074-13.274074 32.237037-20.859259 52.148148-20.859259 29.392593 0 56.888889 16.118519 70.162963 42.666666 13.274074 26.548148 11.377778 56.888889-5.688889 81.540741C623.881481 291.081481 550.874074 362.192593 512 398.222222c-46.459259-43.614815-115.674074-110.933333-156.444444-160.237037-17.066667-23.703704-19.911111-54.992593-6.637037-81.540741 13.274074-26.548148 39.822222-42.666667 70.162962-42.666666l1.896297-56.888889m0 0c-0.948148 0-0.948148 0 0 0h-0.948148C368.82963 56.888889 322.37037 85.333333 298.666667 130.844444c-22.755556 45.511111-18.962963 100.503704 11.377777 141.274075l0.948149 0.948148C374.518519 350.814815 493.985185 459.851852 499.674074 464.592593c3.792593 2.844444 7.585185 4.740741 12.325926 4.74074s8.533333-1.896296 12.325926-4.74074c4.740741-4.740741 125.155556-113.777778 187.733333-190.577778 0-0.948148 0.948148-0.948148 0.948148-1.896296 30.340741-40.77037 34.133333-95.762963 11.377778-141.274075C701.62963 85.333333 655.17037 56.888889 603.97037 56.888889h-0.948148c-34.133333 0-66.37037 13.274074-91.022222 37.925926-23.703704-24.651852-56.888889-37.925926-91.022222-37.925926z"
    fill="currentColor"
  />
</svg>
