<?xml version="1.0" encoding="UTF-8"?>
<svg viewBox="0 0 1024 1024" xmlns="http://www.w3.org/2000/svg" aria-hidden="true">
  <path
    fill="currentColor"
    d="M659.267 0c55.253 0 100.858 42.39 106.047 96.254l0.512 10.231v7.674h67.311c53.353 0 97.496 43.486 102.466 99.031l0.512 10.525v689.707c0 57.006-40.928 103.927-93.038 109.262l-9.867 0.512H139.85c-53.352 0-97.423-43.559-102.466-99.104l-0.438-10.524V223.715c0-56.861 40.928-103.782 93.037-109.117l9.867-0.439h67.385v-7.674c0-55.252 42.39-100.857 96.253-105.973L313.72 0h345.548zM207.234 188.414h-67.385c-15.494 0-28.576 16.225-28.576 35.3v689.708c0 19.221 13.155 35.3 28.576 35.3h693.435c15.494 0 28.65-16.225 28.65-35.3V223.715c0-19.149-13.156-35.3-28.65-35.3h-67.458v8.039a106.705 106.705 0 0 1-106.559 106.485H313.72a106.705 106.705 0 0 1-106.485-106.485v-8.04z m326.18 191.046c19.002 10.962 25.434 35.227 14.47 54.156l-89.017 154.283h141.055c12.863 2.339 20.83 8.99 24.045 19.88 3.07 10.231 0.877 22.217-6.578 35.884L495.044 857.438a39.1 39.1 0 0 1-54.083 14.252 39.393 39.393 0 0 1-15.64-52.037l89.018-154.283H389.216c-52.84-5.847-33.18-57.007-33.034-57.592l122.93-213.848a39.685 39.685 0 0 1 54.229-14.617zM659.267 74.182H313.72a32.304 32.304 0 0 0-32.157 32.157v89.895c0 17.76 14.47 32.304 32.157 32.304h345.548c17.76 0 32.158-14.544 32.158-32.23v-89.896a32.304 32.304 0 0 0-32.158-32.157z"
  />
</svg>
