<?xml version="1.0" standalone="no"?>
<!DOCTYPE svg PUBLIC "-//W3C//DTD SVG 1.1//EN" "http://www.w3.org/Graphics/SVG/1.1/DTD/svg11.dtd">
<svg t="1775028450353" class="icon" viewBox="0 0 1093 1024" version="1.1" xmlns="http://www.w3.org/2000/svg" p-id="3241" xmlns:xlink="http://www.w3.org/1999/xlink">
<path d="M765.430341 214.830782c-145.796255-138.506443-386.360077-138.506443-539.446145 0s-145.796255 364.490639 0 502.997082c72.898128 65.608315 167.665694 102.057379 269.723072 102.057378 102.057379 0 196.824945-36.449064 269.723073-102.057378 72.898128-65.608315 109.347192-153.086068 109.347192-247.853635 0-94.767566-36.449064-189.535132-109.347192-255.143447z m-619.634086 575.895209c-138.506443-131.21663-182.245319-328.041575-109.347191-502.997081 80.18794-174.955507 255.143447-284.302698 459.258204-284.302698s379.070264 109.347192 459.258205 284.302698 36.449064 371.780451-109.347192 502.997081c-189.535132 182.245319-502.997081 182.245319-699.822026 0z m925.806222 211.404571c-14.579626 14.579626-29.159251 21.869438-51.028689 21.869438-14.579626 0-36.449064-7.289813-51.028689-21.869438l-94.767566-87.477754c-29.159251-21.869438-29.159251-65.608315 0-87.477753 29.159251-21.869438 72.898128-21.869438 94.767566 0l94.767566 87.477753c14.579626 14.579626 21.869438 29.159251 21.869438 43.738877 7.289813 14.579626 0 29.159251-14.579626 43.738877z" fill="#101110" p-id="3242"></path>
</svg>
