<svg width="20" height="20" viewBox="0 0 20 20" fill="none" xmlns="http://www.w3.org/2000/svg">
  <path d="M10.7002 11.5333L16.6668 5.61664C16.8566 5.43235 17.1107 5.32927 17.3752 5.32927C17.6397 5.32927 17.8938 5.43235 18.0835 5.61664C18.1788 5.70838 18.2546 5.81839 18.3063 5.9401C18.3581 6.06181 18.3848 6.19271 18.3848 6.32497C18.3848 6.45723 18.3581 6.58813 18.3063 6.70984C18.2546 6.83155 18.1788 6.94156 18.0835 7.0333L10.7502 14.3666C10.5604 14.5509 10.3063 14.654 10.0418 14.654C9.77732 14.654 9.52323 14.5509 9.33349 14.3666L2.01683 7.0333C1.92107 6.94012 1.84496 6.82869 1.79299 6.7056C1.74102 6.58251 1.71425 6.45025 1.71425 6.31664C1.71425 6.18302 1.74102 6.05076 1.79299 5.92767C1.84496 5.80458 1.92107 5.69315 2.01683 5.59997C2.10973 5.50674 2.22012 5.43277 2.34168 5.3823C2.46323 5.33183 2.59355 5.30585 2.72516 5.30585C2.85678 5.30585 2.98709 5.33183 3.10865 5.3823C3.2302 5.43277 3.34059 5.50674 3.4335 5.59997L9.28349 11.5333C9.37523 11.6286 9.48525 11.7044 9.60696 11.7561C9.72867 11.8079 9.85957 11.8346 9.99183 11.8346C10.1241 11.8346 10.255 11.8079 10.3767 11.7561C10.4984 11.7044 10.6084 11.6286 10.7002 11.5333Z" fill="currentColor"/>
</svg>
