<svg width="24" height="24" viewBox="0 0 24 24" fill="none" xmlns="http://www.w3.org/2000/svg">
<path d="M2 20V4H14.1C14.0333 4.33333 14 4.66667 14 5C14 5.33333 14.0333 5.66667 14.1 6H4L12 11L15.65 8.725C15.8833 8.94167 16.1377 9.12933 16.413 9.288C16.6883 9.44667 16.9757 9.584 17.275 9.7L12 13L4 8V18H20V9.9C20.3833 9.81667 20.7417 9.7 21.075 9.55C21.4083 9.4 21.7167 9.21667 22 9V20H2ZM16.875 7.125C16.2917 6.54167 16 5.83333 16 5C16 4.16667 16.2917 3.45833 16.875 2.875C17.4583 2.29167 18.1667 2 19 2C19.8333 2 20.5417 2.29167 21.125 2.875C21.7083 3.45833 22 4.16667 22 5C22 5.83333 21.7083 6.54167 21.125 7.125C20.5417 7.70833 19.8333 8 19 8C18.1667 8 17.4583 7.70833 16.875 7.125Z" fill="white"/>
</svg>
