<svg xmlns="http://www.w3.org/2000/svg" viewBox="0 0 1600 900" role="img" aria-label="Business process consulting illustration">
  <defs>
    <linearGradient id="bg2" x1="0" y1="0" x2="1" y2="1">
      <stop offset="0%" stop-color="#0F3D56"/>
      <stop offset="100%" stop-color="#1E8BA5"/>
    </linearGradient>
    <linearGradient id="step" x1="0" y1="0" x2="1" y2="0">
      <stop offset="0%" stop-color="#66F2DC"/>
      <stop offset="100%" stop-color="#A3FFF1"/>
    </linearGradient>
  </defs>
  <rect width="1600" height="900" fill="url(#bg2)"/>
  <rect x="120" y="130" width="1360" height="640" rx="34" fill="#FFFFFF12" stroke="#FFFFFF35" stroke-width="4"/>
  <rect x="220" y="340" width="220" height="120" rx="18" fill="#FFFFFF22"/>
  <rect x="540" y="340" width="220" height="120" rx="18" fill="#FFFFFF22"/>
  <rect x="860" y="340" width="220" height="120" rx="18" fill="#FFFFFF22"/>
  <rect x="1180" y="340" width="220" height="120" rx="18" fill="#FFFFFF22"/>
  <path d="M440 400H530M760 400H850M1080 400H1170" stroke="url(#step)" stroke-width="12" stroke-linecap="round"/>
  <polygon points="520,385 548,400 520,415" fill="#CBFFF6"/>
  <polygon points="840,385 868,400 840,415" fill="#CBFFF6"/>
  <polygon points="1160,385 1188,400 1160,415" fill="#CBFFF6"/>
  <rect x="220" y="520" width="1180" height="18" rx="9" fill="#FFFFFF30"/>
  <rect x="220" y="520" width="840" height="18" rx="9" fill="#66F2DC"/>
  <text x="220" y="805" fill="#FFFFFF" fill-opacity=".9" font-size="42" font-family="Segoe UI, Arial, sans-serif">Business Process Consulting</text>
</svg>
